<?xml version="1.0" encoding="UTF-8" standalone="no"?>
<!-- Created with Inkscape (http://www.inkscape.org/) -->

<svg
   width="512"
   height="512"
   viewBox="0 0 512 512"
   version="1.1"
   id="svg1"
   xmlns="http://www.w3.org/2000/svg"
   xmlns:svg="http://www.w3.org/2000/svg">
  <defs
     id="defs1" />
  <g
     id="g22"
     style="display:none">
    <rect
       style="display:none;fill:#1d4ed8;fill-opacity:1;stroke-width:15"
       id="rect22"
       width="512"
       height="512"
       x="0"
       y="0"
       ry="96.969315" />
    <path
       id="path18"
       style="font-size:266.904px;font-family:VT323;-inkscape-font-specification:'VT323, Normal';fill:#ffffff;fill-opacity:1;stroke-width:13.4611"
       d="m 327.51662,95.101943 c -0.77916,3.131094 -1.40271,6.309257 -1.59371,9.536067 -0.27861,4.57089 -0.1174,9.1858 0.70585,13.69704 -1.06052,5.59048 -1.03175,11.34901 -0.35444,16.98344 0.11815,1.06081 0.5046,2.12772 0.18034,3.18521 -0.87844,5.32214 -0.82547,10.77442 -0.16661,16.11751 0.11796,1.03044 0.48246,2.06671 0.16667,3.0931 -0.87762,5.32329 -0.82609,10.77663 -0.16674,16.12102 0.12006,1.03065 0.48477,2.06755 0.16668,3.09484 -0.87829,5.32233 -0.8255,10.77438 -0.16668,16.11753 0.12031,1.03062 0.48474,2.06746 0.16674,3.09483 -0.87753,5.32269 -0.82622,10.77549 -0.16659,16.11925 0.122,1.03681 0.48285,2.07939 0.16338,3.11242 -0.88825,5.41334 -0.82309,10.95983 -0.12765,16.39052 0.37767,2.42388 0.95684,4.8099 1.47295,7.20664 25.13081,0 50.26162,0 75.39245,0 1.2675,-4.94956 2.12435,-10.03757 2.02438,-15.16149 -0.0124,-4.27701 -0.39673,-8.60732 -1.60643,-12.71691 -0.90321,-1.62566 -2.88973,-2.3795 -4.67721,-2.08998 -13.85181,-0.0346 -27.70367,-0.0119 -41.55551,-0.0173 0.34767,-4.65362 0.13633,-9.35382 -0.67246,-13.94827 1.07769,-5.81622 1.05572,-11.81586 0.25568,-17.6678 -0.18571,-0.83127 -0.34444,-1.67762 -0.0825,-2.51227 0.89242,-5.52468 0.84663,-11.1867 0.0765,-16.72165 -0.18198,-0.82343 -0.33744,-1.66298 -0.0763,-2.48893 0.89191,-5.52527 0.84673,-11.18792 0.0763,-16.72343 -0.18293,-0.82409 -0.33616,-1.66395 -0.0765,-2.49071 0.89296,-5.52435 0.84496,-11.1849 0.0783,-16.71991 -0.16353,-0.80002 -0.35645,-1.6157 -0.0902,-2.41784 0.91119,-5.62271 0.86857,-11.38815 0.054,-17.01878 -0.39618,-2.20704 -0.9364,-4.383891 -1.43225,-6.569823 -9.21713,-10e-7 -18.43425,0 -27.65138,0 -0.10564,0.465234 -0.2113,0.930468 -0.31696,1.395702 z" />
    <path
       id="path19"
       style="font-size:266.904px;font-family:VT323;-inkscape-font-specification:'VT323, Normal';fill:#ffffff;fill-opacity:1;stroke-width:13.4611"
       d="m 241.67479,184.76313 c -0.82428,3.2901 -1.46612,6.63596 -1.63157,10.03036 -0.15744,2.59303 -0.0939,5.19456 0.0555,7.78629 -2.53281,0 -5.06562,0 -7.59843,0 -1.28361,4.68297 -2.13268,9.51397 -2.07727,14.38291 -0.0203,1.61151 0.023,3.22351 0.1352,4.8312 -2.53165,0 -5.06329,0 -7.59494,0 -1.22829,4.49838 -2.07984,9.12705 -2.0741,13.80358 -0.0534,3.60889 0.13504,7.23625 0.82375,10.78495 -1.06698,5.55614 -1.0351,11.28062 -0.38553,16.88432 0.1191,1.11454 0.53354,2.23499 0.19947,3.34567 -0.88717,5.37676 -0.8188,10.88499 -0.14305,16.28091 0.3751,2.46062 0.96411,4.88125 1.48839,7.31276 2.56142,0 5.12284,0 7.68425,0 -0.39344,5.55138 -0.0343,11.1705 1.27685,16.58676 0.18846,0.87519 0.37694,1.7504 0.56541,2.62559 2.56609,0 5.13217,10e-6 7.69825,0 -0.40889,5.6404 -0.0186,11.34983 1.3374,16.84673 0.17347,0.78901 0.34614,1.5782 0.51887,2.36739 18.7699,0 37.53978,0 56.30968,0 1.28945,-5.00489 2.14229,-10.15531 2.02545,-15.33766 -0.002,-1.29319 -0.0498,-2.58607 -0.13417,-3.87646 2.54799,0 5.09598,0 7.64397,0 1.2768,-4.94439 2.12991,-10.03078 2.02937,-15.15134 -0.0112,-4.28048 -0.39377,-8.61415 -1.60441,-12.72705 -0.90145,-1.61966 -2.87919,-2.37726 -4.6632,-2.0901 -7.78916,-0.0326 -15.5784,-0.0136 -23.3676,-0.0172 -1.25685,4.59721 -2.10876,9.33341 -2.07597,14.11287 -0.0254,1.70084 0.0136,3.40258 0.13215,5.09949 -5.41937,0.003 -10.83873,9e-4 -16.2581,-0.006 0.39485,-5.5822 0.0823,-11.2476 -1.31187,-16.68173 -0.19181,-0.84169 -0.38306,-1.68351 -0.57416,-2.52537 -2.55091,0 -5.10182,0 -7.65272,0 0.34745,-4.65965 0.12961,-9.36546 -0.67246,-13.96579 1.08218,-5.81594 1.05018,-11.81596 0.25392,-17.66605 -0.20257,-0.82727 -0.33477,-1.67693 -0.0754,-2.50872 0.6925,-4.20073 0.78103,-8.48279 0.49743,-12.72493 2.55091,0 5.10182,0 7.65273,0 1.29202,-5.0084 2.14736,-10.16268 2.02581,-15.34921 9e-4,-1.28998 -0.0499,-2.57946 -0.13277,-3.86665 5.41586,0 10.83172,0 16.24758,0 -0.40416,5.61298 -0.0186,11.29277 1.3137,16.76676 0.17721,0.81652 0.35549,1.63283 0.53382,2.4491 9.23463,0 18.46927,0 27.70389,0 1.2742,-4.94559 2.12823,-10.03227 2.02725,-15.15343 -0.0126,-4.28077 -0.39372,-8.61523 -1.60427,-12.72831 -0.9028,-1.61919 -2.87936,-2.37416 -4.66295,-2.09107 -1.13924,-0.0195 -2.27865,-0.0173 -3.418,-0.0146 0.40023,-5.56159 0.0803,-11.20398 -1.2904,-16.62132 -0.19425,-0.86372 -0.38876,-1.7274 -0.58337,-2.59103 -18.7588,0 -37.5176,0 -56.27641,0 -0.10565,0.46523 -0.21131,0.93046 -0.31696,1.3957 z" />
    <path
       id="path20"
       style="font-size:266.904px;font-family:VT323;-inkscape-font-specification:'VT323, Normal';fill:#ffffff;fill-opacity:1;stroke-width:13.4611"
       d="m 136.74669,274.42431 c -0.83886,3.35708 -1.4827,6.77333 -1.63461,10.23716 -0.15055,2.52465 -0.0776,5.05623 0.0655,7.57949 -2.53222,0 -5.06446,0 -7.59668,0 -1.3051,4.72555 -2.14393,9.60657 -2.0808,14.52126 -0.0203,3.36627 0.17672,6.74819 0.83395,10.05502 -1.08784,5.64152 -1.04351,11.45697 -0.35744,17.144 0.37091,2.51784 0.97907,4.99207 1.50797,7.47955 2.56318,0 5.12633,0 7.6895,0 -0.40083,5.60366 -0.0188,11.2753 1.30997,16.74054 0.17914,0.82466 0.35918,1.64913 0.53929,2.47357 15.28034,0 30.56069,0 45.84104,0 -0.33582,4.61397 -0.11167,9.27221 0.6742,13.82743 -0.84277,4.54972 -0.98515,9.2137 -0.65669,13.82569 -8.6048,0 -17.20958,0 -25.81437,0 0.39785,-5.56962 0.085,-11.22375 -1.30266,-16.64641 -0.19575,-0.85529 -0.39134,-1.71062 -0.58688,-2.56596 -9.19962,0 -18.39922,0 -27.59883,0 -1.26407,4.60669 -2.10745,9.35578 -2.0796,14.14542 -0.1018,4.88949 0.47714,9.79086 1.73285,14.51814 1.28705,0.84612 2.78785,1.54331 4.36644,1.3204 1.19174,10e-6 2.3835,0 3.57524,0 -0.40099,5.60419 -0.018,11.27641 1.31019,16.74226 0.17919,0.82406 0.3591,1.64796 0.53907,2.47186 21.95006,0 43.90012,0 65.85019,0 1.29905,-5.00426 2.14906,-10.15677 2.03079,-15.34045 -0.004,-1.29221 -0.0476,-2.58423 -0.1325,-3.87367 2.53223,10e-6 5.06445,0 7.59669,0 1.57292,-5.54005 2.28873,-11.32145 2.04292,-17.0774 -0.0548,-2.5617 -0.33643,-5.1277 -0.78503,-7.63957 1.08052,-5.8707 1.05956,-11.91909 0.23062,-17.81955 -0.39718,-2.23907 -0.95346,-4.44495 -1.457,-6.66154 -2.54681,0 -5.09364,0 -7.64046,0 0.39792,-5.58456 0.0819,-11.25225 -1.31187,-16.68874 -0.19181,-0.84169 -0.38305,-1.68352 -0.57416,-2.52538 -15.26867,0 -30.53734,0 -45.80601,0 0.34681,-4.65181 0.13553,-9.34975 -0.67247,-13.94301 0.8599,-4.50759 0.98037,-9.1368 0.67597,-13.7101 8.59837,0 17.19674,0 25.7951,0 -0.40224,5.57811 -0.0261,11.22375 1.29108,16.66552 0.18354,0.84944 0.36655,1.699 0.54944,2.54858 9.23287,0 18.46576,0 27.69864,0 1.29013,-4.93667 2.13398,-10.01959 2.03927,-15.13521 -0.007,-4.30465 -0.4,-8.66511 -1.62349,-12.79773 -0.9254,-1.55964 -2.84287,-2.31042 -4.59973,-2.0431 -1.15387,-0.0163 -2.30783,-0.0106 -3.46177,-0.0114 0.39806,-5.584 0.0822,-11.25109 -1.31187,-16.68698 -0.19181,-0.8417 -0.38305,-1.68352 -0.57416,-2.52537 -21.93664,0 -43.87327,0 -65.80991,0 -0.10566,0.46523 -0.21131,0.93046 -0.31697,1.3957 z" />
    <path
       id="path21"
       style="font-size:266.667px;font-family:VT323;-inkscape-font-specification:'VT323, Normal';fill:#ffffff;fill-opacity:1;stroke-width:13.4492"
       d="m 410.16689,127.68643 c -0.83622,3.32822 -1.4838,6.71465 -1.6403,10.14968 -0.22723,4.70379 -0.0244,9.45379 0.97816,14.06667 0.22034,0.95451 0.38705,1.92376 0.59922,2.8723 0.40688,1.17788 1.7696,1.56988 2.90021,1.40329 4.90381,0 9.80763,0 14.71144,0 -0.3334,4.58606 -0.12075,9.22018 0.67596,13.74513 -1.0317,5.55576 -1.03034,11.27447 -0.35567,16.87379 0.11615,1.07628 0.52497,2.15937 0.19198,3.23179 -0.8769,5.27847 -0.82797,10.68654 -0.17786,15.9868 0.11686,1.04601 0.50727,2.10004 0.17786,3.14151 -0.87667,5.27731 -0.82808,10.68416 -0.17814,15.98334 0.12032,1.05192 0.5057,2.11071 0.17658,3.159 -0.889,5.3667 -0.82765,10.86704 -0.13954,16.25221 0.37559,2.44442 0.96704,4.8482 1.48685,7.26444 2.56724,0 5.13451,0 7.70175,0 -0.19904,2.78511 -0.18874,5.58425 0.0123,8.36896 -2.5369,0 -5.07379,0 -7.61069,0 -1.30357,4.65349 -2.14366,9.46254 -2.09678,14.30725 -0.0262,3.40659 0.16809,6.82977 0.83416,10.17621 -1.07859,5.55821 -1.0423,11.28893 -0.37843,16.8948 0.11615,1.07629 0.52497,2.15937 0.19198,3.23179 -0.876,5.27903 -0.82738,10.68745 -0.17802,15.98858 0.11501,1.04749 0.51119,2.10241 0.18942,3.14763 -0.91168,5.56264 -0.86932,11.26798 -0.0772,16.84062 0.12954,0.67691 0.3393,1.34863 0.11115,2.09179 -0.74267,4.27331 -0.84519,8.63798 -0.55415,12.95934 -5.74392,0 -11.48784,0 -17.23175,0 -1.29294,4.96585 -2.15151,10.07739 -2.03839,15.22314 0.015,4.23447 0.40989,8.52187 1.61819,12.58612 0.92044,1.60399 2.89146,2.34929 4.67244,2.06107 10.98687,0.0322 21.97377,0.0141 32.96065,0.0173 1.27018,-4.56252 2.11355,-9.2695 2.09125,-14.01796 0.0264,-1.70448 -0.0107,-3.40988 -0.13166,-5.11035 2.53515,0 5.0703,0 7.60543,0 1.26135,-4.53282 2.10332,-9.20748 2.09127,-13.9248 0.0415,-3.53391 -0.13765,-7.08811 -0.83041,-10.56041 1.07628,-5.53719 1.03895,-11.24601 0.38725,-16.83176 -0.11006,-1.09732 -0.53894,-2.20146 -0.21391,-3.29573 0.91414,-5.54538 0.86496,-11.23253 0.0894,-16.78985 -0.21803,-0.83146 -0.30253,-1.68627 -0.0584,-2.52237 0.87524,-5.46481 0.82683,-11.06359 0.0689,-16.53765 -0.19697,-0.83074 -0.33374,-1.68545 -0.079,-2.52055 0.69337,-4.17685 0.78363,-8.436 0.50085,-12.65489 5.7445,0 11.489,0 17.23351,0 1.27877,-4.93297 2.13684,-10.00762 2.03762,-15.11806 -0.01,-4.2695 -0.40349,-8.59305 -1.62093,-12.69118 -0.9198,-1.60273 -2.88902,-2.3488 -4.66894,-2.06131 -4.3282,-0.0312 -8.6565,-0.008 -12.98477,-0.0188 0.33813,-4.61899 0.14348,-9.28674 -0.67771,-13.84494 1.08047,-5.78595 1.05395,-11.75695 0.26619,-17.58025 -0.21761,-0.86136 -0.33585,-1.74695 -0.0756,-2.61383 0.87915,-5.48648 0.82637,-11.10753 0.0583,-16.60244 -0.21804,-0.83145 -0.30249,-1.68626 -0.0584,-2.52237 0.87523,-5.46482 0.82688,-11.06358 0.0689,-16.53764 -0.21305,-0.8591 -0.32443,-1.74301 -0.0671,-2.60641 0.88364,-5.54375 0.8307,-11.22543 0.0263,-16.77432 -0.39427,-2.20308 -0.9479,-4.37278 -1.44451,-6.55405 -2.55383,7e-5 -5.10766,-8.9e-4 -7.66148,-0.002 0.39959,-5.58769 0.0738,-11.25915 -1.33682,-16.69484 -0.18702,-0.81075 -0.37507,-1.62124 -0.56323,-2.43171 -12.42239,0 -24.84479,0 -37.26718,0 -0.10624,0.46523 -0.21248,0.93046 -0.31872,1.3957 z" />
    <path
       id="path22"
       style="font-size:266.667px;font-family:VT323;-inkscape-font-specification:'VT323, Normal';fill:#ffffff;fill-opacity:1;stroke-width:13.4492"
       d="m 94.661246,126.29248 c -10.135906,-0.005 -20.271828,-5.1e-4 -30.407747,-0.002 -1.032877,4.18981 -1.977867,8.44104 -2.019387,12.77705 -0.06075,2.11735 -0.0316,4.23807 0.117588,6.35125 -2.537481,0 -5.074963,0 -7.612444,0 -1.303505,4.65285 -2.144523,9.46127 -2.095031,14.3055 -0.02649,3.40594 0.1644,6.82885 0.83242,10.17445 -1.075896,5.53665 -1.03806,11.24464 -0.388969,16.83002 0.115756,1.09908 0.536991,2.20479 0.202511,3.30008 -0.875294,5.27846 -0.828665,10.68645 -0.177859,15.9868 0.11686,1.04601 0.507273,2.10004 0.177859,3.14151 -0.876487,5.27673 -0.828274,10.68301 -0.178189,15.9816 0.11712,1.04605 0.505146,2.09907 0.179889,3.14143 -0.717501,4.21542 -0.792012,8.51786 -0.498208,12.77662 -5.728159,0 -11.456318,0 -17.184477,0 -1.238534,4.4657 -2.079027,9.06542 -2.093627,13.71175 -0.118503,5.00902 0.43688,10.03858 1.746892,14.87825 1.309559,0.85463 2.845451,1.52674 4.44173,1.2908 4.357906,0.005 8.715811,0.008 13.073721,0.008 -0.333399,4.60203 -0.109539,9.24601 0.682965,13.79065 -1.056402,5.5341 -1.026785,11.24409 -0.362696,16.82651 0.115684,1.07692 0.525169,2.16053 0.192,3.23354 -0.875639,5.27909 -0.828157,10.68748 -0.178015,15.98858 0.115009,1.0475 0.511192,2.1024 0.189434,3.14763 -0.913888,5.56336 -0.862944,11.26838 -0.07899,16.84238 0.201399,0.78732 0.305778,1.59804 0.0614,2.38998 -0.894666,5.55917 -0.847335,11.25828 -0.04538,16.8244 0.394768,2.21685 0.950633,4.39966 1.449838,6.59433 2.553827,-7e-5 5.107652,9e-4 7.661478,0.002 -0.396981,5.56006 -0.07792,11.20389 1.318964,16.61437 0.193327,0.83734 0.386362,1.67476 0.579331,2.51219 12.401964,0 24.803926,0 37.205893,0 1.3033,-4.65403 2.14523,-9.46363 2.09459,-14.30901 0.037,-4.46762 -0.32663,-8.98565 -1.55742,-13.29265 -0.76473,-1.78398 -2.878304,-2.58584 -4.710624,-2.26725 -4.33051,-0.0343 -8.661168,-0.0188 -12.991763,-0.0205 0.334136,-4.60419 0.100769,-9.24865 -0.679464,-13.79592 1.048004,-5.53628 1.021639,-11.24478 0.35733,-16.82824 -0.113713,-1.0759 -0.530251,-2.159 -0.203305,-3.2327 0.913873,-5.56394 0.862958,-11.26956 0.07899,-16.84413 -0.198824,-0.78275 -0.307284,-1.58864 -0.06315,-2.37598 0.891234,-5.49239 0.840432,-11.12109 0.08273,-16.62455 -0.213343,-0.85924 -0.327873,-1.7427 -0.06741,-2.60638 0.881217,-5.53035 0.829198,-11.19808 0.0318,-16.73404 -0.394768,-2.21685 -0.950632,-4.39965 -1.449839,-6.59432 -2.553241,8e-5 -5.106484,-9e-4 -7.659726,-0.002 0.207895,-2.78388 0.201674,-5.58285 0.0053,-8.36721 2.554994,0 5.109987,0 7.664981,0 1.293243,-4.95506 2.148827,-10.05728 2.035761,-15.19231 -0.0095,-3.13136 -0.204431,-6.27581 -0.83269,-9.34894 1.091078,-5.78799 1.068342,-11.75389 0.288947,-17.57849 -0.188936,-0.85324 -0.375425,-1.73142 -0.09982,-2.59001 0.891013,-5.49301 0.840613,-11.12227 0.0827,-16.6263 -0.211538,-0.85401 -0.328603,-1.73212 -0.06909,-2.59063 0.878054,-5.46476 0.822131,-11.06321 0.06909,-16.53768 -0.197286,-0.83076 -0.337343,-1.68519 -0.07921,-2.52051 0.69747,-4.17585 0.78032,-8.43517 0.499106,-12.65313 5.745092,0 11.490172,0 17.235266,0 1.27901,-4.92484 2.13929,-9.99148 2.03594,-15.09426 0.0126,-4.27109 -0.4301,-8.5632 -1.58063,-12.68495 -0.87454,-1.40662 -2.510344,-2.29044 -4.174494,-2.13026 -1.04558,0.008 -2.09117,0.0157 -3.13675,0.0236 z" />
  </g>
</svg>
